<svg width="686" height="134" viewBox="0 0 686 134" fill="none" xmlns="http://www.w3.org/2000/svg">
<path d="M39.344 43.808H26.928V100H8.752V43.808H0.688V29.088H8.752V25.504C8.752 16.8 11.2267 10.4 16.176 6.30399C21.1253 2.208 28.592 0.287997 38.576 0.543999V15.648C34.224 15.5627 31.1947 16.288 29.488 17.824C27.7813 19.36 26.928 22.1333 26.928 26.144V29.088H39.344V43.808ZM106.381 29.088V100H88.333V91.04C86.029 94.112 82.9997 96.544 79.245 98.336C75.5757 100.043 71.565 100.896 67.213 100.896C61.6663 100.896 56.7597 99.744 52.493 97.44C48.2263 95.0507 44.8557 91.5947 42.381 87.072C39.9917 82.464 38.797 77.0027 38.797 70.688V29.088H56.717V68.128C56.717 73.76 58.125 78.112 60.941 81.184C63.757 84.1707 67.597 85.664 72.461 85.664C77.4103 85.664 81.293 84.1707 84.109 81.184C86.925 78.112 88.333 73.76 88.333 68.128V29.088H106.381ZM127.518 28.064C135.966 28.064 142.793 30.752 147.998 36.128C153.203 41.4187 155.806 48.8427 155.806 58.4V100H137.886V60.832C137.886 55.2 136.478 50.8907 133.662 47.904C130.846 44.832 127.006 43.296 122.142 43.296C117.193 43.296 113.267 44.832 110.366 47.904C107.55 50.8907 106.142 55.2 106.142 60.832V100H88.222V29.088H106.142V37.92C108.531 34.848 111.561 32.4587 115.23 30.752C118.985 28.96 123.081 28.064 127.518 28.064ZM204.463 28.064C212.911 28.064 219.738 30.752 224.943 36.128C230.148 41.4187 232.751 48.8427 232.751 58.4V100H214.831V60.832C214.831 55.2 213.423 50.8907 210.607 47.904C207.791 44.832 203.951 43.296 199.087 43.296C194.138 43.296 190.212 44.832 187.311 47.904C184.495 50.8907 183.087 55.2 183.087 60.832V100H165.167V29.088H183.087V37.92C185.476 34.848 188.506 32.4587 192.175 30.752C195.93 28.96 200.026 28.064 204.463 28.064ZM309.952 29.088L266.048 133.536H246.976L262.336 98.208L233.92 29.088H254.016L272.32 78.624L290.88 29.088H309.952ZM351.228 28.064C359.676 28.064 366.503 30.752 371.708 36.128C376.913 41.4187 379.516 48.8427 379.516 58.4V100H361.596V60.832C361.596 55.2 360.188 50.8907 357.372 47.904C354.556 44.832 350.716 43.296 345.852 43.296C340.903 43.296 336.977 44.832 334.076 47.904C331.26 50.8907 329.852 55.2 329.852 60.832V100H311.932V29.088H329.852V37.92C332.241 34.848 335.271 32.4587 338.94 30.752C342.695 28.96 346.791 28.064 351.228 28.064ZM384.269 64.288C384.269 57.12 385.677 50.7627 388.493 45.216C391.394 39.6693 395.277 35.4027 400.141 32.416C405.09 29.4293 410.594 27.936 416.653 27.936C421.944 27.936 426.552 29.0027 430.477 31.136C434.488 33.2693 437.688 35.9573 440.077 39.2V29.088H458.125V100H440.077V89.632C437.773 92.96 434.573 95.7333 430.477 97.952C426.466 100.085 421.816 101.152 416.525 101.152C410.552 101.152 405.09 99.616 400.141 96.544C395.277 93.472 391.394 89.1627 388.493 83.616C385.677 77.984 384.269 71.5413 384.269 64.288ZM440.077 64.544C440.077 60.192 439.224 56.48 437.517 53.408C435.81 50.2507 433.506 47.8613 430.605 46.24C427.704 44.5333 424.589 43.68 421.261 43.68C417.933 43.68 414.861 44.4907 412.045 46.112C409.229 47.7333 406.925 50.1227 405.133 53.28C403.426 56.352 402.573 60.0213 402.573 64.288C402.573 68.5547 403.426 72.3093 405.133 75.552C406.925 78.7093 409.229 81.1413 412.045 82.848C414.946 84.5547 418.018 85.408 421.261 85.408C424.589 85.408 427.704 84.5973 430.605 82.976C433.506 81.2693 435.81 78.88 437.517 75.808C439.224 72.6507 440.077 68.896 440.077 64.544ZM475.883 100.896C472.64 100.896 469.952 99.9147 467.819 97.952C465.771 95.904 464.747 93.3867 464.747 90.4C464.747 87.4133 465.771 84.9387 467.819 82.976C469.952 80.928 472.64 79.904 475.883 79.904C479.04 79.904 481.643 80.928 483.691 82.976C485.739 84.9387 486.763 87.4133 486.763 90.4C486.763 93.3867 485.739 95.904 483.691 97.952C481.643 99.9147 479.04 100.896 475.883 100.896ZM581.581 28.064C590.285 28.064 597.282 30.752 602.573 36.128C607.949 41.4187 610.637 48.8427 610.637 58.4V100H592.717V60.832C592.717 55.2853 591.309 51.0613 588.493 48.16C585.677 45.1733 581.837 43.68 576.973 43.68C572.109 43.68 568.226 45.1733 565.325 48.16C562.509 51.0613 561.101 55.2853 561.101 60.832V100H543.181V60.832C543.181 55.2853 541.773 51.0613 538.957 48.16C536.141 45.1733 532.301 43.68 527.437 43.68C522.488 43.68 518.562 45.1733 515.661 48.16C512.845 51.0613 511.437 55.2853 511.437 60.832V100H493.517V29.088H511.437V37.664C513.741 34.6773 516.685 32.3307 520.269 30.624C523.938 28.9173 527.949 28.064 532.301 28.064C537.848 28.064 542.797 29.2587 547.149 31.648C551.501 33.952 554.872 37.28 557.261 41.632C559.565 37.536 562.893 34.2507 567.245 31.776C571.682 29.3013 576.461 28.064 581.581 28.064ZM685.882 63.008C685.882 65.568 685.711 67.872 685.37 69.92H633.53C633.957 75.04 635.749 79.0507 638.906 81.952C642.063 84.8533 645.946 86.304 650.554 86.304C657.21 86.304 661.946 83.4453 664.762 77.728H684.09C682.042 84.5547 678.117 90.1867 672.314 94.624C666.511 98.976 659.386 101.152 650.938 101.152C644.111 101.152 637.967 99.6587 632.506 96.672C627.13 93.6 622.906 89.2907 619.834 83.744C616.847 78.1973 615.354 71.7973 615.354 64.544C615.354 57.2053 616.847 50.7627 619.834 45.216C622.821 39.6693 627.002 35.4027 632.378 32.416C637.754 29.4293 643.941 27.936 650.938 27.936C657.679 27.936 663.695 29.3867 668.986 32.288C674.362 35.1893 678.501 39.328 681.402 44.704C684.389 49.9947 685.882 56.096 685.882 63.008ZM667.322 57.888C667.237 53.28 665.573 49.6107 662.33 46.88C659.087 44.064 655.119 42.656 650.426 42.656C645.989 42.656 642.234 44.0213 639.162 46.752C636.175 49.3973 634.341 53.1093 633.658 57.888H667.322Z" fill="white"/>
</svg>
